<?xml version="1.0" encoding="UTF-8" standalone="no"?>
<svg
   xmlns:dc="http://purl.org/dc/elements/1.1/"
   xmlns:cc="http://creativecommons.org/ns#"
   xmlns:rdf="http://www.w3.org/1999/02/22-rdf-syntax-ns#"
   xmlns:svg="http://www.w3.org/2000/svg"
   xmlns="http://www.w3.org/2000/svg"
   xmlns:sodipodi="http://sodipodi.sourceforge.net/DTD/sodipodi-0.dtd"
   xmlns:inkscape="http://www.inkscape.org/namespaces/inkscape"
   width="572.02747mm"
   height="431.90039mm"
   viewBox="0 0 572.02747 431.90039"
   version="1.1"
   id="svg8"
   inkscape:version="0.92.3 (2405546, 2018-03-11)"
   sodipodi:docname="isometric-smartphone.svg">
  <defs
     id="defs2">
    <inkscape:path-effect
       hide_knots="false"
       only_selected="false"
       apply_with_radius="true"
       apply_no_radius="true"
       use_knot_distance="true"
       flexible="false"
       chamfer_steps="1"
       radius="0"
       mode="F"
       method="auto"
       unit="px"
       satellites_param="F,0,1,1,0,6.6659426,0,1 @ F,0,1,1,0,6.6659426,0,1 @ F,0,0,1,0,6.6659426,0,1 @ F,0,1,1,0,6.6659426,0,1"
       lpeversion="1"
       is_visible="true"
       id="path-effect1653"
       effect="fillet_chamfer" />
    <inkscape:path-effect
       hide_knots="false"
       only_selected="false"
       apply_with_radius="true"
       apply_no_radius="true"
       use_knot_distance="true"
       flexible="false"
       chamfer_steps="1"
       radius="0"
       mode="F"
       method="auto"
       unit="px"
       satellites_param="F,0,1,1,0,1.6063988,0,1 @ F,0,0,1,0,1.6063988,0,1 @ F,0,1,1,0,1.6063988,0,1 @ F,0,1,1,0,1.6063988,0,1"
       lpeversion="1"
       is_visible="true"
       id="path-effect1649"
       effect="fillet_chamfer" />
    <inkscape:path-effect
       effect="fillet_chamfer"
       id="path-effect1645"
       is_visible="true"
       lpeversion="1"
       satellites_param="F,0,1,1,0,1.6063988,0,1 @ F,0,0,1,0,1.6063988,0,1 @ F,0,1,1,0,1.6063988,0,1 @ F,0,1,1,0,1.6063988,0,1"
       unit="px"
       method="auto"
       mode="F"
       radius="0"
       chamfer_steps="1"
       flexible="false"
       use_knot_distance="true"
       apply_no_radius="true"
       apply_with_radius="true"
       only_selected="false"
       hide_knots="false" />
    <inkscape:path-effect
       hide_knots="false"
       only_selected="false"
       apply_with_radius="true"
       apply_no_radius="true"
       use_knot_distance="true"
       flexible="false"
       chamfer_steps="1"
       radius="0"
       mode="F"
       method="auto"
       unit="px"
       satellites_param="F,0,1,1,0,1.6063988,0,1 @ F,0,0,1,0,1.6063988,0,1 @ F,0,1,1,0,1.6063988,0,1 @ F,0,1,1,0,1.6063988,0,1"
       lpeversion="1"
       is_visible="true"
       id="path-effect1641"
       effect="fillet_chamfer" />
    <inkscape:path-effect
       hide_knots="false"
       only_selected="false"
       apply_with_radius="true"
       apply_no_radius="true"
       use_knot_distance="true"
       flexible="false"
       chamfer_steps="1"
       radius="0"
       mode="F"
       method="auto"
       unit="px"
       satellites_param="F,0,1,1,0,5.5092206,0,1 @ F,0,1,1,0,5.5092206,0,1 @ F,0,0,1,0,5.5092206,0,1 @ F,0,1,1,0,5.5092206,0,1"
       lpeversion="1"
       is_visible="true"
       id="path-effect1636"
       effect="fillet_chamfer" />
    <inkscape:path-effect
       hide_knots="false"
       only_selected="false"
       apply_with_radius="true"
       apply_no_radius="true"
       use_knot_distance="true"
       flexible="false"
       chamfer_steps="1"
       radius="0"
       mode="F"
       method="auto"
       unit="px"
       satellites_param="F,0,1,1,0,13.229167,0,1 @ F,0,1,1,0,13.229167,0,1 @ F,0,1,1,0,13.229167,0,1 @ F,0,0,1,0,13.229167,0,1"
       lpeversion="1"
       is_visible="true"
       id="path-effect1044"
       effect="fillet_chamfer" />
    <inkscape:path-effect
       hide_knots="false"
       only_selected="false"
       apply_with_radius="true"
       apply_no_radius="true"
       use_knot_distance="true"
       flexible="false"
       chamfer_steps="1"
       radius="0"
       mode="F"
       method="auto"
       unit="px"
       satellites_param="F,0,1,1,0,13.229159,0,1 @ F,0,1,1,0,13.229159,0,1 @ F,0,1,1,0,13.229159,0,1 @ F,0,0,1,0,13.229159,0,1"
       lpeversion="1"
       is_visible="true"
       id="path-effect1042"
       effect="fillet_chamfer" />
    <inkscape:path-effect
       hide_knots="false"
       only_selected="false"
       apply_with_radius="true"
       apply_no_radius="true"
       use_knot_distance="true"
       flexible="false"
       chamfer_steps="1"
       radius="0"
       mode="F"
       method="auto"
       unit="px"
       satellites_param="F,0,1,1,0,13.229166,0,1 @ F,0,1,1,0,13.229166,0,1 @ F,0,1,1,0,13.229166,0,1 @ F,0,0,1,0,13.229166,0,1"
       lpeversion="1"
       is_visible="true"
       id="path-effect1040"
       effect="fillet_chamfer" />
    <inkscape:path-effect
       hide_knots="false"
       only_selected="false"
       apply_with_radius="true"
       apply_no_radius="true"
       use_knot_distance="true"
       flexible="false"
       chamfer_steps="1"
       radius="0"
       mode="F"
       method="auto"
       unit="px"
       satellites_param="F,0,1,1,0,13.22917,0,1 @ F,0,1,1,0,13.22917,0,1 @ F,0,1,1,0,13.22917,0,1 @ F,0,0,1,0,13.22917,0,1"
       lpeversion="1"
       is_visible="true"
       id="path-effect1038"
       effect="fillet_chamfer" />
    <inkscape:path-effect
       hide_knots="false"
       only_selected="false"
       apply_with_radius="true"
       apply_no_radius="true"
       use_knot_distance="true"
       flexible="false"
       chamfer_steps="1"
       radius="0"
       mode="F"
       method="auto"
       unit="px"
       satellites_param="F,0,1,1,0,6.2646209,0,1 @ F,0,0,1,0,6.2646209,0,1 @ F,0,1,1,0,6.2646209,0,1 @ F,0,1,1,0,6.2646209,0,1"
       lpeversion="1"
       is_visible="true"
       id="path-effect847"
       effect="fillet_chamfer" />
    <inkscape:path-effect
       hide_knots="false"
       only_selected="false"
       apply_with_radius="true"
       apply_no_radius="true"
       use_knot_distance="true"
       flexible="false"
       chamfer_steps="1"
       radius="0"
       mode="F"
       method="auto"
       unit="px"
       satellites_param="F,0,1,1,0,6.2076516,0,1 @ F,0,1,1,0,6.2076516,0,1 @ F,0,0,1,0,6.2076516,0,1 @ F,0,1,1,0,6.2076516,0,1"
       lpeversion="1"
       is_visible="true"
       id="path-effect845"
       effect="fillet_chamfer" />
    <inkscape:path-effect
       hide_knots="false"
       only_selected="false"
       apply_with_radius="true"
       apply_no_radius="true"
       use_knot_distance="true"
       flexible="false"
       chamfer_steps="1"
       radius="0"
       mode="F"
       method="auto"
       unit="px"
       satellites_param="F,0,1,1,0,26.458326,0,1 @ F,0,1,1,0,26.458326,0,1 @ F,0,1,1,0,26.458326,0,1 @ F,0,0,1,0,26.458326,0,1"
       lpeversion="1"
       is_visible="true"
       id="path-effect843"
       effect="fillet_chamfer" />
    <filter
       height="1.0939491"
       y="-0.046974536"
       width="1.054841"
       x="-0.027420489"
       id="filter1870"
       style="color-interpolation-filters:sRGB"
       inkscape:collect="always">
      <feGaussianBlur
         id="feGaussianBlur1872"
         stdDeviation="6.1957491"
         inkscape:collect="always" />
    </filter>
  </defs>
  <sodipodi:namedview
     fit-margin-bottom="0"
     fit-margin-right="0"
     fit-margin-left="0"
     fit-margin-top="0"
     inkscape:object-nodes="false"
     inkscape:snap-bbox-edge-midpoints="true"
     inkscape:snap-smooth-nodes="true"
     inkscape:snap-bbox-midpoints="true"
     inkscape:snap-midpoints="true"
     inkscape:bbox-nodes="true"
     inkscape:snap-bbox="true"
     inkscape:snap-intersection-paths="true"
     inkscape:snap-global="false"
     inkscape:window-maximized="0"
     inkscape:window-y="0"
     inkscape:window-x="0"
     inkscape:window-height="716"
     inkscape:window-width="1350"
     showborder="true"
     showgrid="true"
     inkscape:document-rotation="0"
     inkscape:current-layer="layer1"
     inkscape:document-units="mm"
     inkscape:cy="578.74121"
     inkscape:cx="1131.5511"
     inkscape:zoom="0.12374369"
     inkscape:pageshadow="2"
     inkscape:pageopacity="0.0"
     borderopacity="1.0"
     bordercolor="#666666"
     pagecolor="#ffffff"
     id="base">
    <inkscape:grid
       originy="193.74374"
       originx="182.90294"
       units="px"
       spacingy="13.229167"
       id="grid1925"
       type="axonomgrid"
       empspacing="5" />
  </sodipodi:namedview>
  <metadata
     id="metadata5">
    <rdf:RDF>
      <cc:Work
         rdf:about="">
        <dc:format>image/svg+xml</dc:format>
        <dc:type
           rdf:resource="http://purl.org/dc/dcmitype/StillImage" />
        <dc:title></dc:title>
      </cc:Work>
    </rdf:RDF>
  </metadata>
  <g
     transform="translate(182.90295,193.74374)"
     id="layer1"
     inkscape:groupmode="layer"
     inkscape:label="Layer 1">
    <g
       id="g1881">
      <path
         d="m 183.32421,-93.263334 a 45.827164,45.827164 0 0 0 -22.92883,6.139677 L -160.39486,98.084154 V 78.430058 l -7.63829,13.229167 v 19.654615 l 5.3e-4,-0.001 a 15.275722,15.275722 0 0 0 7.63725,13.2302 L 0,217.14717 a 45.827164,45.827164 0 0 0 45.827177,0 L 366.6169,31.93884 v 0 a 15.275722,15.275722 0 0 0 7.63778,-13.228649 15.275722,15.275722 0 0 0 0,-5.3e-4 V -0.9449408 l -4.88394,8.4583986 A 15.275722,15.275722 0 0 0 366.6169,5.4805071 L 206.22204,-87.123657 a 45.827164,45.827164 0 0 0 -22.89783,-6.139677 z"
         style="fill:#0d0021;fill-opacity:0.435484;stroke:none;stroke-width:0.264583px;stroke-linecap:butt;stroke-linejoin:miter;stroke-opacity:1;filter:url(#filter1870)"
         id="path1696" />
      <path
         id="path849"
         style="fill:#8b40ff;fill-opacity:1;stroke:none;stroke-width:0.264583px;stroke-linecap:butt;stroke-linejoin:miter;stroke-opacity:1"
         d="m 183.32421,-105.54756 a 45.827164,45.827164 0 0 0 -22.92883,6.139677 L -160.39486,85.799929 V 66.145832 l -7.63829,13.229167 v 19.654615 l 5.3e-4,-0.0011 a 15.275722,15.275722 0 0 0 7.63725,13.230206 L 0,204.86295 a 45.827164,45.827164 0 0 0 45.827177,0 L 366.6169,19.654614 v 0 a 15.275722,15.275722 0 0 0 7.63778,-13.2286498 15.275722,15.275722 0 0 0 0,-5.292e-4 v -19.654602 l -4.88394,8.4583988 A 15.275722,15.275722 0 0 0 366.6169,-6.8037191 L 206.22204,-99.407883 a 45.827164,45.827164 0 0 0 -22.89783,-6.139677 z" />
      <path
         style="fill:#d9bfff;fill-opacity:1;stroke:none;stroke-width:0.264583px;stroke-linecap:butt;stroke-linejoin:miter;stroke-opacity:1"
         d="M 6.453836e-6,185.20834 -160.39513,92.604165 a 15.275722,15.275722 0 0 1 0,-26.458326 L 160.39513,-119.06251 a 45.827164,45.827164 0 0 1 45.82716,0 l 160.39514,92.60418 a 15.275722,15.275722 0 0 1 0,26.458326013877 L 45.827171,185.20834 a 45.827165,45.827165 0 0 1 -45.827164546164,0 z"
         id="path841" />
      <path
         style="fill:#5900de;fill-opacity:1;stroke:none;stroke-width:0.264583px;stroke-linecap:butt;stroke-linejoin:miter;stroke-opacity:1"
         d="m -63.315448,108.96565 46.433332,26.8083 a 3.6168798,3.6168798 0 0 1 0,6.26462 l -0.606152,0.34996 a 10.850644,10.850644 0 0 1 -10.850642,0 l -46.433332,-26.8083 a 3.6168798,3.6168798 0 0 1 0,-6.26462 l 0.606152,-0.34996 a 10.850644,10.850644 0 0 1 10.850642,0 z"
         id="path835" />
      <path
         style="fill:#0d0021;fill-opacity:1;stroke:none;stroke-width:0.264583px;stroke-linecap:butt;stroke-linejoin:miter;stroke-opacity:1"
         d="M 57.283974,165.36459 -126.02474,59.531252 160.39513,-105.83334 343.70384,0 Z"
         id="path837" />
      <path
         style="fill:#5900de;fill-opacity:1;stroke:none;stroke-width:0.264583px;stroke-linecap:butt;stroke-linejoin:miter;stroke-opacity:1"
         d="m 245.96867,-69.656592 46.53202,26.865266 a 10.751965,10.751965 0 0 0 10.75196,-1e-6 l 0.70483,-0.406931 a 3.5839902,3.5839902 0 0 0 0,-6.207652 l -46.53202,-26.865267 a 10.751966,10.751966 0 0 0 -10.75196,2e-6 l -0.70483,0.40693 a 3.58399,3.58399 0 0 0 0,6.207653 z"
         id="path839" />
      <path
         style="fill:#808080;stroke:#000000;stroke-width:1.05833;stroke-linecap:butt;stroke-linejoin:miter;stroke-miterlimit:4;stroke-dasharray:none;stroke-opacity:1"
         d="m 338.01992,-16.510776 a 11.456895,11.456895 179.74314 0 0 11.45679,-0.05136 3.8192761,3.8192761 89.229534 0 0 -0.089,-6.614583 11.45691,11.45691 179.74314 0 0 -11.45679,0.05136 3.8192779,3.8192779 89.229404 0 0 0.089,6.614583 z"
         id="path1651"
         inkscape:path-effect="#path-effect1653"
         inkscape:original-d="m 332.24705,-19.84375 11.45678,6.614583 11.4568,-6.614583 -11.4568,-6.614583 z" />
    </g>
    <g
       transform="translate(-12.984477,21.597922)"
       id="g1628">
      <g
         id="g1591"
         transform="translate(48.108515,28.865109)">
        <path
           id="path1498"
           style="font-size:39.1013px;line-height:1.25;font-family:'Times New Roman';-inkscape-font-specification:'Times New Roman, ';fill:#000b8a;fill-opacity:1;stroke:none;stroke-width:0.264583px;stroke-linecap:butt;stroke-linejoin:miter;stroke-opacity:1"
           d="m -25.166937,-92.071077 a 7.6378651,7.6378651 0 0 0 -0.865584,0.05683 c -1.305534,-0.01455 -2.607284,0.217514 -4.175443,0.920353 -6.11423,2.740343 -13.551958,9.371489 -13.001784,13.754207 l 10.470145,0.656801 v 45.166255 a 22.913596,22.913596 0 0 0 11.45667,19.84375 l 57.284357,33.072905 v 5.29e-4 L 48.444596,42.952728 V 68.181152 L 58.91476,61.087527 V 34.629193 l 9.926526,5.730917 -5.120619,9.001001 c 11.716991,-2.381999 17.464652,-8.38775 18.05368,-13.825514 a 7.6378651,7.6378651 0 0 0 0.03359,-0.347266 c 0.0011,-0.01741 0.0026,-0.03479 0.0036,-0.05219 A 7.6378651,7.6378651 0 0 0 81.8286,34.629193 V -18.287462 A 22.913596,22.913596 0 0 0 70.371419,-38.131213 l -91.654352,-52.916668 a 7.6378651,7.6378651 0 0 0 -0.987028,-0.479054 c 0,-5.3e-5 0,5.3e-5 0,0 a 7.6378651,7.6378651 0 0 0 -2.895944,-0.544142 z" />
        <path
           id="path1500"
           style="font-size:39.1013px;line-height:1.25;font-family:'Times New Roman';-inkscape-font-specification:'Times New Roman, ';fill:#2a7fff;fill-opacity:1;stroke:none;stroke-width:0.264583px;stroke-linecap:butt;stroke-linejoin:miter;stroke-opacity:1"
           d="m -35.637108,-84.977466 c -4.192746,0.0358 -7.62,3.49213 -7.619894,7.685035 l 0.04725,52.869414 c -2.6e-5,8.186208 4.367213,15.7505928 11.456644,19.84375 l 57.284383,33.072918 v 5.29e-4 L 48.444596,68.181152 V 41.722818 l 11.456665,6.614583 c 5.091997,2.940262 11.457353,-0.734655 11.457184,-6.614583 V -11.19385 c -8.2e-5,-8.186315 -4.367546,-15.750726 -11.457184,-19.843751 l -91.654365,-52.916668 c -1.1802,-0.681461 -2.521241,-1.034759 -3.884004,-1.023197 z"
           sodipodi:nodetypes="cccccccccccccc" />
      </g>
      <text
         xml:space="preserve"
         style="font-style:normal;font-variant:normal;font-weight:normal;font-stretch:normal;font-size:11.2889px;line-height:1.25;font-family:Broadway;-inkscape-font-specification:Broadway;stroke-width:0.646597"
         x="14.027474"
         y="-52.701683"
         id="text1522"
         transform="skewY(30)"><tspan
           sodipodi:role="line"
           id="tspan1520"
           x="14.027474"
           y="-52.701683"
           style="font-style:normal;font-variant:normal;font-weight:normal;font-stretch:normal;font-family:Broadway;-inkscape-font-specification:Broadway;stroke-width:0.646597">Afonso </tspan></text>
      <g
         style="font-size:39.1013px;line-height:1.25;font-family:'Times New Roman';-inkscape-font-specification:'Times New Roman, ';stroke-width:2.44383"
         id="g1563"
         transform="translate(414.80231,253.37151)">
        <path
           style="fill:#ffffff;fill-opacity:1;stroke:none;stroke-width:0.222285px;stroke-linecap:butt;stroke-linejoin:miter;stroke-opacity:1"
           d="m -398.61971,-269.35004 a 20.929224,17.706383 0 0 0 10.4646,15.33417 6.9763996,5.9021205 0 0 0 10.4646,-5.11139 20.929211,17.706372 0 0 0 -10.46461,-15.33417 6.9763998,5.9021207 0 0 0 -10.46459,5.11139 z"
           id="path1539" />
        <path
           id="path1541"
           d="m -367.22589,-254.01587 v 1e-5 a 20.929214,17.706374 0 0 0 10.46459,15.33416 h 1e-5 a 6.9763991,5.90212 0 0 0 10.4646,-5.11138 h -10e-6 a 20.929205,17.706366 0 0 0 -10.46458,-15.33416 l -2e-5,-1e-5 a 6.9763967,5.902118 0 0 0 -10.46459,5.11138 z"
           style="fill:#ffffff;fill-opacity:1;stroke:none;stroke-width:0.222285px;stroke-linecap:butt;stroke-linejoin:miter;stroke-opacity:1" />
        <path
           style="fill:#ffffff;fill-opacity:1;stroke:none;stroke-width:0.222285px;stroke-linecap:butt;stroke-linejoin:miter;stroke-opacity:1"
           d="m -335.83207,-238.6817 a 20.929224,17.706383 0 0 0 10.46461,15.33417 6.9763996,5.9021205 0 0 0 10.46459,-5.11138 20.929211,17.706372 0 0 0 -10.46459,-15.33417 6.9763998,5.9021207 0 0 0 -10.46461,5.11138 z"
           id="path1543" />
        <path
           id="path1883"
           d="m -364.60185,-419.78456 a 20.929224,17.706383 0 0 0 10.4646,15.33417 6.9763996,5.9021205 0 0 0 10.4646,-5.11139 20.929211,17.706372 0 0 0 -10.46461,-15.33417 6.9763998,5.9021207 0 0 0 -10.46459,5.11139 z"
           style="fill:#ffffff;fill-opacity:1;stroke:none;stroke-width:0.222285px;stroke-linecap:butt;stroke-linejoin:miter;stroke-opacity:1" />
        <path
           style="fill:#ffffff;fill-opacity:1;stroke:none;stroke-width:0.222285px;stroke-linecap:butt;stroke-linejoin:miter;stroke-opacity:1"
           d="m -333.20803,-404.45039 v 1e-5 a 20.929214,17.706374 0 0 0 10.46459,15.33416 h 1e-5 a 6.9763991,5.90212 0 0 0 10.4646,-5.11138 h -10e-6 a 20.929205,17.706366 0 0 0 -10.46458,-15.33416 l -2e-5,-1e-5 a 6.9763967,5.902118 0 0 0 -10.46459,5.11138 z"
           id="path1885" />
        <path
           id="path1887"
           d="m -301.81421,-389.11622 a 20.929224,17.706383 0 0 0 10.46461,15.33417 6.9763996,5.9021205 0 0 0 10.46459,-5.11138 20.929211,17.706372 0 0 0 -10.46459,-15.33417 6.9763998,5.9021207 0 0 0 -10.46461,5.11138 z"
           style="fill:#ffffff;fill-opacity:1;stroke:none;stroke-width:0.222285px;stroke-linecap:butt;stroke-linejoin:miter;stroke-opacity:1" />
      </g>
      <text
         transform="skewY(30)"
         id="text1595"
         y="8.6751995"
         x="40.161629"
         style="font-style:normal;font-variant:normal;font-weight:normal;font-stretch:normal;font-size:26.48040009px;line-height:1.25;font-family:Broadway;-inkscape-font-specification:Broadway;fill:#ff0000;stroke-width:1.51672995"
         xml:space="preserve"><tspan
           style="font-style:normal;font-variant:normal;font-weight:normal;font-stretch:normal;font-family:Broadway;-inkscape-font-specification:Broadway;fill:#ff0000;stroke-width:1.51672995"
           y="8.6751995"
           x="40.161629"
           id="tspan1593"
           sodipodi:role="line">♥♥♥ </tspan></text>
    </g>
    <g
       id="g1027"
       transform="rotate(21.766282,-476.14686,919.20732)"
       style="font-size:39.1013px;line-height:1.25;font-family:'Times New Roman';-inkscape-font-specification:'Times New Roman, ';stroke-width:2.44383">
      <path
         id="path1211"
         style="fill:#e03c00;fill-opacity:1;stroke:none;stroke-width:0.999999px;stroke-linecap:butt;stroke-linejoin:miter;stroke-opacity:1"
         d="m -1274.1465,-1380.6777 a 28.867521,28.867521 0 0 0 -3.2715,0.2148 c -4.9343,-0.055 -9.8543,0.8221 -15.7812,3.4785 -23.1089,10.3572 -51.22,35.4198 -49.1406,51.9844 l 39.5722,2.4824 v 170.7071 a 86.602564,86.602564 0 0 0 43.3008,75 l 216.5078,124.99995 v 0.002 l 47.02931,81.45703 V -775 l 39.57227,-26.81055 v -100 l 37.51758,21.66016 -19.35352,34.01953 c 44.28469,-9.00283 66.00813,-31.70173 68.23438,-52.25391 a 28.867521,28.867521 0 0 0 0.12695,-1.3125 c 0.004,-0.0658 0.01,-0.1315 0.0137,-0.19726 a 28.867521,28.867521 0 0 0 0.0644,-1.91602 v -199.99995 a 86.602564,86.602564 0 0 0 -43.30273,-75 l -346.41014,-200 a 28.867521,28.867521 0 0 0 -3.7305,-1.8106 c 0,-2e-4 0,2e-4 0,0 a 28.867521,28.867521 0 0 0 -10.9453,-2.0566 z"
         transform="matrix(0.24571966,-0.09811315,0.09811315,0.24571966,43.059412,-93.148646)" />
      <path
         id="path1036"
         style="fill:#ff8800;fill-opacity:1;stroke:none;stroke-width:0.999999px;stroke-linecap:butt;stroke-linejoin:miter;stroke-opacity:1"
         d="m -1313.7188,-1353.8672 c -15.8466,0.1353 -28.8,13.1986 -28.7996,29.0458 l 0.1786,199.8214 c -10e-5,30.94 16.506,59.5298 43.3007,75 l 216.5079,125 v 0.002 L -995.92969,-775 v -100 l 43.30078,25 c 19.24534,11.1128 43.30338,-2.77665 43.30274,-25 v -200 c -3.1e-4,-30.9404 -16.50726,-59.5303 -43.30274,-75 l -346.41019,-200 c -4.4606,-2.5756 -9.5291,-3.9109 -14.6797,-3.8672 z"
         transform="matrix(0.24571966,-0.09811315,0.09811315,0.24571966,43.059412,-93.148646)"
         sodipodi:nodetypes="cccccccccccccc" />
      <path
         style="fill:#ffffff;fill-opacity:1;stroke:none;stroke-width:0.216881px;stroke-linecap:butt;stroke-linejoin:miter;stroke-opacity:1"
         d="m -389.22282,-264.76342 a 18.78251,18.78251 0 0 0 14.75352,11.62394 6.2608292,6.2608292 0 0 0 6.71108,-8.51795 18.782498,18.782498 0 0 0 -14.75351,-11.62394 6.2608293,6.2608293 0 0 0 -6.71109,8.51795 z"
         id="path1030" />
      <path
         id="path1032"
         d="m -357.02591,-260.10444 v 2e-5 a 18.782501,18.782501 0 0 0 14.75352,11.62393 v 0 a 6.2608287,6.2608287 0 0 0 6.71109,-8.51794 h -10e-6 a 18.782493,18.782493 0 0 0 -14.75351,-11.62394 h -10e-6 a 6.2608266,6.2608266 0 0 0 -6.71108,8.51793 z"
         style="fill:#ffffff;fill-opacity:1;stroke:none;stroke-width:0.216881px;stroke-linecap:butt;stroke-linejoin:miter;stroke-opacity:1" />
      <path
         style="fill:#ffffff;fill-opacity:1;stroke:none;stroke-width:0.216881px;stroke-linecap:butt;stroke-linejoin:miter;stroke-opacity:1"
         d="m -324.829,-255.44544 a 18.78251,18.78251 0 0 0 14.75352,11.62394 6.2608292,6.2608292 0 0 0 6.71108,-8.51795 18.782498,18.782498 0 0 0 -14.75351,-11.62394 6.2608293,6.2608293 0 0 0 -6.71109,8.51795 z"
         id="path1034" />
    </g>
    <text
       transform="skewY(30)"
       xml:space="preserve"
       style="font-style:normal;font-variant:normal;font-weight:normal;font-stretch:normal;font-size:10.4697px;line-height:1.25;font-family:Broadway;-inkscape-font-specification:Broadway;stroke-width:0.599675"
       x="37.3825"
       y="-194.68732"
       id="text1514"><tspan
         sodipodi:role="line"
         id="tspan1512"
         x="37.3825"
         y="-194.68732"
         style="font-style:normal;font-variant:normal;font-weight:normal;font-stretch:normal;font-family:Broadway;-inkscape-font-specification:Broadway;stroke-width:0.599675">Dada</tspan></text>
    <text
       transform="skewY(30)"
       id="text1599"
       y="-136.58096"
       x="61.985603"
       style="font-style:normal;font-variant:normal;font-weight:normal;font-stretch:normal;font-size:26.48040009px;line-height:1.25;font-family:Broadway;-inkscape-font-specification:Broadway;fill:#ff0000;stroke-width:1.51672995"
       xml:space="preserve"><tspan
         style="font-style:normal;font-variant:normal;font-weight:normal;font-stretch:normal;font-family:Broadway;-inkscape-font-specification:Broadway;fill:#ff0000;stroke-width:1.51672995"
         y="-136.58096"
         x="61.985603"
         id="tspan1597"
         sodipodi:role="line">♥♥♥ </tspan></text>
  </g>
</svg>
