<svg version="1.1" viewBox="0.0 0.0 720.0 540.0" fill="none" stroke="none" stroke-linecap="square" stroke-miterlimit="10" xmlns:xlink="http://www.w3.org/1999/xlink" xmlns="http://www.w3.org/2000/svg"><clipPath id="p.0"><path d="m0 0l720.0 0l0 540.0l-720.0 0l0 -540.0z" clip-rule="nonzero"/></clipPath><g clip-path="url(#p.0)"><path fill="#000000" fill-opacity="0.0" d="m0 0l720.0 0l0 540.0l-720.0 0z" fill-rule="evenodd"/><path fill="#cfe2f3" d="m206.50166 256.06055c-4.122925 1.5367432 -14.010498 -32.92038 -24.67978 -35.501297c-10.669296 -2.5809326 -36.737976 21.326324 -39.335968 20.015747c-2.597992 -1.3105927 18.93132 -20.90683 23.748032 -27.879272c4.8167114 -6.9724426 11.453201 -11.273407 5.152237 -13.955383c-6.3009644 -2.6819763 -44.14392 1.2366638 -42.958008 -2.1364746c1.1859131 -3.3731384 44.14479 -13.41864 50.073486 -18.102371c5.9286957 -4.683716 -5.917755 -7.0 -14.501312 -10.0c-8.583542 -3.0 -39.786957 -5.466751 -37.0 -8.0c2.786972 -2.5332336 48.221786 -0.19946289 53.721786 -7.199463c5.5 -7.0 -25.3517 -33.667114 -20.721786 -34.80053c4.6299286 -1.1334229 39.584427 28.333336 48.501312 27.999992c8.916885 -0.33332825 2.1666718 -31.333328 5.0 -29.999992c2.8333435 1.3333282 3.3333435 35.333336 12.0 37.999992c8.666672 2.6666718 38.75023 -25.0 40.000015 -22.0c1.2497559 3.0 -34.91646 31.981628 -32.501328 40.0c2.4151459 8.018372 46.49214 3.6102448 46.99214 8.110245c0.5 4.5 -37.938766 10.616791 -43.99214 18.889755c-6.05336 8.2729645 12.578751 28.775162 7.671921 30.748032c-4.90683 1.9728851 -30.917755 -23.2126 -37.11287 -18.910751c-6.195099 4.301834 4.0651855 43.185028 -0.057739258 44.72177z" fill-rule="evenodd"/><path stroke="#000000" stroke-width="1.0" stroke-linejoin="round" stroke-linecap="butt" d="m206.50166 256.06055c-4.122925 1.5367432 -14.010498 -32.92038 -24.67978 -35.501297c-10.669296 -2.5809326 -36.737976 21.326324 -39.335968 20.015747c-2.597992 -1.3105927 18.93132 -20.90683 23.748032 -27.879272c4.8167114 -6.9724426 11.453201 -11.273407 5.152237 -13.955383c-6.3009644 -2.6819763 -44.14392 1.2366638 -42.958008 -2.1364746c1.1859131 -3.3731384 44.14479 -13.41864 50.073486 -18.102371c5.9286957 -4.683716 -5.917755 -7.0 -14.501312 -10.0c-8.583542 -3.0 -39.786957 -5.466751 -37.0 -8.0c2.786972 -2.5332336 48.221786 -0.19946289 53.721786 -7.199463c5.5 -7.0 -25.3517 -33.667114 -20.721786 -34.80053c4.6299286 -1.1334229 39.584427 28.333336 48.501312 27.999992c8.916885 -0.33332825 2.1666718 -31.333328 5.0 -29.999992c2.8333435 1.3333282 3.3333435 35.333336 12.0 37.999992c8.666672 2.6666718 38.75023 -25.0 40.000015 -22.0c1.2497559 3.0 -34.91646 31.981628 -32.501328 40.0c2.4151459 8.018372 46.49214 3.6102448 46.99214 8.110245c0.5 4.5 -37.938766 10.616791 -43.99214 18.889755c-6.05336 8.2729645 12.578751 28.775162 7.671921 30.748032c-4.90683 1.9728851 -30.917755 -23.2126 -37.11287 -18.910751c-6.195099 4.301834 4.0651855 43.185028 -0.057739258 44.72177z" fill-rule="evenodd"/><path fill="#ff0000" d="m189.0 181.00787l0 0c0 -8.28862 6.9378204 -15.007874 15.496063 -15.007874l0 0c4.1098175 0 8.0513 1.5811768 10.957367 4.395706c2.9060822 2.8145142 4.5386963 6.631836 4.5386963 10.612167l0 0c0 8.28862 -6.9378204 15.007874 -15.496063 15.007874l0 0c-8.558243 0 -15.496063 -6.7192535 -15.496063 -15.007874z" fill-rule="evenodd"/><path stroke="#000000" stroke-width="1.0" stroke-linejoin="round" stroke-linecap="butt" d="m189.0 181.00787l0 0c0 -8.28862 6.9378204 -15.007874 15.496063 -15.007874l0 0c4.1098175 0 8.0513 1.5811768 10.957367 4.395706c2.9060822 2.8145142 4.5386963 6.631836 4.5386963 10.612167l0 0c0 8.28862 -6.9378204 15.007874 -15.496063 15.007874l0 0c-8.558243 0 -15.496063 -6.7192535 -15.496063 -15.007874z" fill-rule="evenodd"/><path fill="#999999" d="m237.00095 178.00072c-1.5428772 3.4527588 0.6832886 13.902893 3.2440948 17.21785c2.5608063 3.3149567 7.3678894 2.5319366 12.120728 2.6719208c4.7528534 0.13998413 11.699051 -0.72003174 16.396317 -1.832016c4.697296 -1.1119995 10.185486 -1.8101501 11.787415 -4.839905c1.6019287 -3.0297394 0.16796875 -10.749771 -2.1758423 -13.338577c-2.3438416 -2.5888062 -7.0752563 -1.6312408 -11.887146 -2.1942291c-4.8118896 -0.5629883 -12.069992 -1.5695496 -16.984253 -1.1837311c-4.914261 0.38583374 -10.95845 0.045944214 -12.501312 3.4986877z" fill-rule="evenodd"/><path stroke="#000000" stroke-width="1.0" stroke-linejoin="round" stroke-linecap="butt" d="m237.00095 178.00072c-1.5428772 3.4527588 0.6832886 13.902893 3.2440948 17.21785c2.5608063 3.3149567 7.3678894 2.5319366 12.120728 2.6719208c4.7528534 0.13998413 11.699051 -0.72003174 16.396317 -1.832016c4.697296 -1.1119995 10.185486 -1.8101501 11.787415 -4.839905c1.6019287 -3.0297394 0.16796875 -10.749771 -2.1758423 -13.338577c-2.3438416 -2.5888062 -7.0752563 -1.6312408 -11.887146 -2.1942291c-4.8118896 -0.5629883 -12.069992 -1.5695496 -16.984253 -1.1837311c-4.914261 0.38583374 -10.95845 0.045944214 -12.501312 3.4986877z" fill-rule="evenodd"/><path fill="#999999" d="m275.0063 178.67868c-1.728241 2.9184875 -1.6690369 10.207031 0.4215088 12.782608c2.0905762 2.5755768 7.3687744 2.53096 12.121826 2.670868c4.7530212 0.1399231 11.699097 -0.7195282 16.396393 -1.8313446c4.697296 -1.1118164 10.185547 -1.8097687 11.7873535 -4.839569c1.6018066 -3.0298157 0.16729736 -10.750153 -2.1765442 -13.339249c-2.3438416 -2.5891113 -7.259857 -2.1667938 -11.886475 -2.1953888c-4.626587 -0.02859497 -11.429108 0.89845276 -15.873108 2.0238037c-4.444031 1.1253357 -9.062714 1.8097992 -10.790955 4.7282715z" fill-rule="evenodd"/><path stroke="#000000" stroke-width="1.0" stroke-linejoin="round" stroke-linecap="butt" d="m275.0063 178.67868c-1.728241 2.9184875 -1.6690369 10.207031 0.4215088 12.782608c2.0905762 2.5755768 7.3687744 2.53096 12.121826 2.670868c4.7530212 0.1399231 11.699097 -0.7195282 16.396393 -1.8313446c4.697296 -1.1118164 10.185547 -1.8097687 11.7873535 -4.839569c1.6018066 -3.0298157 0.16729736 -10.750153 -2.1765442 -13.339249c-2.3438416 -2.5891113 -7.259857 -2.1667938 -11.886475 -2.1953888c-4.626587 -0.02859497 -11.429108 0.89845276 -15.873108 2.0238037c-4.444031 1.1253357 -9.062714 1.8097992 -10.790955 4.7282715z" fill-rule="evenodd"/><path fill="#999999" d="m307.92755 174.56714c-1.728241 2.9184723 -1.6690369 10.207016 0.4215088 12.782593c2.0905457 2.575592 7.3687744 2.53096 12.121796 2.6708832c4.7530518 0.1399231 11.699127 -0.7195282 16.396423 -1.8313599c4.6972656 -1.1118164 10.185547 -1.8097687 11.7873535 -4.839569c1.6018066 -3.0298004 0.16729736 -10.750137 -2.1765442 -13.339249c-2.3438416 -2.589096 -7.259857 -2.1667786 -11.886475 -2.1953735c-4.626587 -0.02861023 -11.429108 0.8984375 -15.873108 2.0237885c-4.444031 1.125351 -9.062714 1.8097992 -10.790955 4.7282867z" fill-rule="evenodd"/><path stroke="#000000" stroke-width="1.0" stroke-linejoin="round" stroke-linecap="butt" d="m307.92755 174.56714c-1.728241 2.9184723 -1.6690369 10.207016 0.4215088 12.782593c2.0905457 2.575592 7.3687744 2.53096 12.121796 2.6708832c4.7530518 0.1399231 11.699127 -0.7195282 16.396423 -1.8313599c4.6972656 -1.1118164 10.185547 -1.8097687 11.7873535 -4.839569c1.6018066 -3.0298004 0.16729736 -10.750137 -2.1765442 -13.339249c-2.3438416 -2.589096 -7.259857 -2.1667786 -11.886475 -2.1953735c-4.626587 -0.02861023 -11.429108 0.8984375 -15.873108 2.0237885c-4.444031 1.125351 -9.062714 1.8097992 -10.790955 4.7282867z" fill-rule="evenodd"/><path fill="#cfe2f3" d="m370.0033 171.39348c0.34381104 -4.646103 9.635162 -6.7961426 12.388428 -16.002625c2.753296 -9.206467 3.1846008 -38.11767 4.131256 -39.236214c0.94662476 -1.1185532 -1.5490112 32.524925 1.5485535 32.524925c3.0975342 0 16.17627 -33.041115 17.036743 -32.524925c0.8604431 0.51618195 -16.43396 32.954506 -11.874023 35.622047c4.5599365 2.6675415 38.45932 -20.305344 39.23358 -19.616806c0.774292 0.6885376 -29.08136 17.725296 -34.58792 23.748032c-5.5065613 6.022751 -6.2812805 12.130356 1.5485535 12.388458c7.829834 0.25808716 46.032806 -11.6141815 45.43045 -10.839905c-0.60235596 0.774292 -39.924316 11.26947 -49.044617 15.485565c-9.1203 4.21611 -11.184174 7.22966 -5.6771545 9.811035c5.5069885 2.5813599 38.54724 4.7309723 38.719147 5.6771545c0.17193604 0.9461975 -30.890198 -2.6675415 -37.687653 0c-6.797455 2.6675415 -1.2904663 16.865707 -3.097107 16.005249c-1.8066711 -0.8604431 -4.731415 -15.66098 -7.742798 -21.167969c-3.011383 -5.507004 -10.669281 -7.2279205 -10.325439 -11.874023z" fill-rule="evenodd"/><path stroke="#000000" stroke-width="1.0" stroke-linejoin="round" stroke-linecap="butt" d="m370.0033 171.39348c0.34381104 -4.646103 9.635162 -6.7961426 12.388428 -16.002625c2.753296 -9.206467 3.1846008 -38.11767 4.131256 -39.236214c0.94662476 -1.1185532 -1.5490112 32.524925 1.5485535 32.524925c3.0975342 0 16.17627 -33.041115 17.036743 -32.524925c0.8604431 0.51618195 -16.43396 32.954506 -11.874023 35.622047c4.5599365 2.6675415 38.45932 -20.305344 39.23358 -19.616806c0.774292 0.6885376 -29.08136 17.725296 -34.58792 23.748032c-5.5065613 6.022751 -6.2812805 12.130356 1.5485535 12.388458c7.829834 0.25808716 46.032806 -11.6141815 45.43045 -10.839905c-0.60235596 0.774292 -39.924316 11.26947 -49.044617 15.485565c-9.1203 4.21611 -11.184174 7.22966 -5.6771545 9.811035c5.5069885 2.5813599 38.54724 4.7309723 38.719147 5.6771545c0.17193604 0.9461975 -30.890198 -2.6675415 -37.687653 0c-6.797455 2.6675415 -1.2904663 16.865707 -3.097107 16.005249c-1.8066711 -0.8604431 -4.731415 -15.66098 -7.742798 -21.167969c-3.011383 -5.507004 -10.669281 -7.2279205 -10.325439 -11.874023z" fill-rule="evenodd"/><path fill="#999999" d="m340.05353 170.07108c-1.728241 2.9184723 -1.6690369 10.207016 0.4215088 12.782593c2.0905762 2.575592 7.3687744 2.53096 12.121826 2.6708832c4.7530212 0.1399231 11.699097 -0.7195282 16.396393 -1.8313599c4.697296 -1.1118164 10.185547 -1.8097687 11.7873535 -4.839569c1.6018066 -3.0298004 0.16729736 -10.750137 -2.1765442 -13.339249c-2.3438416 -2.589096 -7.259857 -2.1667786 -11.886475 -2.1953735c-4.626587 -0.02861023 -11.429108 0.8984375 -15.873108 2.0237885c-4.4440002 1.125351 -9.062714 1.8097992 -10.790955 4.7282867z" fill-rule="evenodd"/><path stroke="#000000" stroke-width="1.0" stroke-linejoin="round" stroke-linecap="butt" d="m340.05353 170.07108c-1.728241 2.9184723 -1.6690369 10.207016 0.4215088 12.782593c2.0905762 2.575592 7.3687744 2.53096 12.121826 2.6708832c4.7530212 0.1399231 11.699097 -0.7195282 16.396393 -1.8313599c4.697296 -1.1118164 10.185547 -1.8097687 11.7873535 -4.839569c1.6018066 -3.0298004 0.16729736 -10.750137 -2.1765442 -13.339249c-2.3438416 -2.589096 -7.259857 -2.1667786 -11.886475 -2.1953735c-4.626587 -0.02861023 -11.429108 0.8984375 -15.873108 2.0237885c-4.4440002 1.125351 -9.062714 1.8097992 -10.790955 4.7282867z" fill-rule="evenodd"/><path fill="#000000" fill-opacity="0.0" d="m133.6063 68.27559l164.28348 0l0 39.181107l-164.28348 0z" fill-rule="evenodd"/><path fill="#000000" d="m143.45004 90.89871l1.65625 -0.140625q0.125 1.0 0.546875 1.640625q0.4375 0.640625 1.34375 1.046875q0.921875 0.390625 2.0625 0.390625q1.0 0 1.78125 -0.296875q0.78125 -0.296875 1.15625 -0.8125q0.375 -0.53125 0.375 -1.15625q0 -0.625 -0.375 -1.09375q-0.359375 -0.46875 -1.1875 -0.796875q-0.546875 -0.203125 -2.390625 -0.640625q-1.828125 -0.453125 -2.5625 -0.84375q-0.96875 -0.5 -1.4375 -1.234375q-0.46875 -0.75 -0.46875 -1.671875q0 -1.0 0.578125 -1.875q0.578125 -0.890625 1.671875 -1.34375q1.109375 -0.453125 2.453125 -0.453125q1.484375 0 2.609375 0.484375q1.140625 0.46875 1.75 1.40625q0.609375 0.921875 0.65625 2.09375l-1.6875 0.125q-0.140625 -1.265625 -0.9375 -1.90625q-0.78125 -0.65625 -2.3125 -0.65625q-1.609375 0 -2.34375 0.59375q-0.734375 0.59375 -0.734375 1.421875q0 0.71875 0.53125 1.171875q0.5 0.46875 2.65625 0.96875q2.15625 0.484375 2.953125 0.84375q1.171875 0.53125 1.71875 1.359375q0.5625 0.828125 0.5625 1.90625q0 1.0625 -0.609375 2.015625q-0.609375 0.9375 -1.75 1.46875q-1.140625 0.515625 -2.578125 0.515625q-1.8125 0 -3.046875 -0.53125q-1.21875 -0.53125 -1.921875 -1.59375q-0.6875 -1.0625 -0.71875 -2.40625zm12.224823 -0.546875q0 -2.6875 1.484375 -3.96875q1.25 -1.078125 3.046875 -1.078125q2.0 0 3.265625 1.3125q1.265625 1.296875 1.265625 3.609375q0 1.859375 -0.5625 2.9375q-0.5625 1.0625 -1.640625 1.65625q-1.0625 0.59375 -2.328125 0.59375q-2.03125 0 -3.28125 -1.296875q-1.25 -1.3125 -1.25 -3.765625zm1.6875 0q0 1.859375 0.796875 2.796875q0.8125 0.921875 2.046875 0.921875q1.21875 0 2.03125 -0.921875q0.8125 -0.9375 0.8125 -2.84375q0 -1.796875 -0.8125 -2.71875q-0.8125 -0.921875 -2.03125 -0.921875q-1.234375 0 -2.046875 0.921875q-0.796875 0.90625 -0.796875 2.765625zm9.297592 4.84375l0 -9.671875l1.46875 0l0 1.359375q0.453125 -0.71875 1.203125 -1.140625q0.765625 -0.4375 1.71875 -0.4375q1.078125 0 1.765625 0.453125q0.6875 0.4375 0.96875 1.234375q1.15625 -1.6875 2.984375 -1.6875q1.453125 0 2.21875 0.796875q0.78125 0.796875 0.78125 2.453125l0 6.640625l-1.640625 0l0 -6.09375q0 -0.984375 -0.15625 -1.40625q-0.15625 -0.4375 -0.578125 -0.703125q-0.421875 -0.265625 -0.984375 -0.265625q-1.015625 0 -1.6875 0.6875q-0.671875 0.671875 -0.671875 2.15625l0 5.625l-1.640625 0l0 -6.28125q0 -1.09375 -0.40625 -1.640625q-0.40625 -0.546875 -1.3125 -0.546875q-0.6875 0 -1.28125 0.359375q-0.59375 0.359375 -0.859375 1.0625q-0.25 0.703125 -0.25 2.03125l0 5.015625l-1.640625 0zm21.853302 -1.1875q-0.921875 0.765625 -1.765625 1.09375q-0.828125 0.3125 -1.796875 0.3125q-1.59375 0 -2.453125 -0.78125q-0.859375 -0.78125 -0.859375 -1.984375q0 -0.71875 0.328125 -1.296875q0.328125 -0.59375 0.84375 -0.9375q0.53125 -0.359375 1.1875 -0.546875q0.46875 -0.125 1.453125 -0.25q1.984375 -0.234375 2.921875 -0.5625q0.015625 -0.34375 0.015625 -0.421875q0 -1.0 -0.46875 -1.421875q-0.625 -0.546875 -1.875 -0.546875q-1.15625 0 -1.703125 0.40625q-0.546875 0.40625 -0.8125 1.421875l-1.609375 -0.21875q0.21875 -1.015625 0.71875 -1.640625q0.5 -0.640625 1.453125 -0.984375q0.953125 -0.34375 2.1875 -0.34375q1.25 0 2.015625 0.296875q0.78125 0.28125 1.140625 0.734375q0.375 0.4375 0.515625 1.109375q0.078125 0.421875 0.078125 1.515625l0 2.1875q0 2.28125 0.109375 2.890625q0.109375 0.59375 0.40625 1.15625l-1.703125 0q-0.265625 -0.515625 -0.328125 -1.1875zm-0.140625 -3.671875q-0.890625 0.375 -2.671875 0.625q-1.015625 0.140625 -1.4375 0.328125q-0.421875 0.1875 -0.65625 0.53125q-0.21875 0.34375 -0.21875 0.78125q0 0.65625 0.5 1.09375q0.5 0.4375 1.453125 0.4375q0.9375 0 1.671875 -0.40625q0.75 -0.421875 1.09375 -1.140625q0.265625 -0.5625 0.265625 -1.640625l0 -0.609375zm12.512146 8.78125q-1.359375 -1.703125 -2.296875 -4.0q-0.9375 -2.296875 -0.9375 -4.765625q0 -2.15625 0.703125 -4.140625q0.828125 -2.3125 2.53125 -4.59375l1.171875 0q-1.09375 1.890625 -1.453125 2.703125q-0.546875 1.25 -0.875 2.625q-0.390625 1.703125 -0.390625 3.421875q0 4.375 2.71875 8.75l-1.171875 0zm9.712677 -7.03125l1.6875 0.203125q-0.40625 1.484375 -1.484375 2.3125q-1.078125 0.8125 -2.765625 0.8125q-2.125 0 -3.375 -1.296875q-1.234375 -1.3125 -1.234375 -3.671875q0 -2.453125 1.25 -3.796875q1.265625 -1.34375 3.265625 -1.34375q1.9375 0 3.15625 1.328125q1.234375 1.3125 1.234375 3.703125q0 0.15625 0 0.4375l-7.21875 0q0.09375 1.59375 0.90625 2.453125q0.8125 0.84375 2.015625 0.84375q0.90625 0 1.546875 -0.46875q0.640625 -0.484375 1.015625 -1.515625zm-5.390625 -2.65625l5.40625 0q-0.109375 -1.21875 -0.625 -1.828125q-0.78125 -0.953125 -2.03125 -0.953125q-1.125 0 -1.90625 0.765625q-0.765625 0.75 -0.84375 2.015625zm9.141342 5.765625l0 -9.671875l1.46875 0l0 1.375q1.0625 -1.59375 3.078125 -1.59375q0.875 0 1.609375 0.3125q0.734375 0.3125 1.09375 0.828125q0.375 0.5 0.515625 1.203125q0.09375 0.453125 0.09375 1.59375l0 5.953125l-1.640625 0l0 -5.890625q0 -1.0 -0.203125 -1.484375q-0.1875 -0.5 -0.671875 -0.796875q-0.484375 -0.296875 -1.140625 -0.296875q-1.046875 0 -1.8125 0.671875q-0.75 0.65625 -0.75 2.515625l0 5.28125l-1.640625 0zm13.953842 -1.46875l0.234375 1.453125q-0.6875 0.140625 -1.234375 0.140625q-0.890625 0 -1.390625 -0.28125q-0.484375 -0.28125 -0.6875 -0.734375q-0.203125 -0.46875 -0.203125 -1.9375l0 -5.578125l-1.203125 0l0 -1.265625l1.203125 0l0 -2.390625l1.625 -0.984375l0 3.375l1.65625 0l0 1.265625l-1.65625 0l0 5.671875q0 0.6875 0.078125 0.890625q0.09375 0.203125 0.28125 0.328125q0.203125 0.109375 0.578125 0.109375q0.265625 0 0.71875 -0.0625zm1.5895538 1.46875l0 -9.671875l1.46875 0l0 1.46875q0.5625 -1.03125 1.03125 -1.359375q0.484375 -0.328125 1.0625 -0.328125q0.828125 0 1.6875 0.53125l-0.5625 1.515625q-0.609375 -0.359375 -1.203125 -0.359375q-0.546875 0 -0.96875 0.328125q-0.421875 0.328125 -0.609375 0.890625q-0.28125 0.875 -0.28125 1.921875l0 5.0625l-1.625 0zm12.540802 -1.1875q-0.921875 0.765625 -1.765625 1.09375q-0.828125 0.3125 -1.796875 0.3125q-1.59375 0 -2.453125 -0.78125q-0.859375 -0.78125 -0.859375 -1.984375q0 -0.71875 0.328125 -1.296875q0.328125 -0.59375 0.84375 -0.9375q0.53125 -0.359375 1.1875 -0.546875q0.46875 -0.125 1.453125 -0.25q1.984375 -0.234375 2.921875 -0.5625q0.015625 -0.34375 0.015625 -0.421875q0 -1.0 -0.46875 -1.421875q-0.625 -0.546875 -1.875 -0.546875q-1.15625 0 -1.703125 0.40625q-0.546875 0.40625 -0.8125 1.421875l-1.609375 -0.21875q0.21875 -1.015625 0.71875 -1.640625q0.5 -0.640625 1.453125 -0.984375q0.953125 -0.34375 2.1875 -0.34375q1.25 0 2.015625 0.296875q0.78125 0.28125 1.140625 0.734375q0.375 0.4375 0.515625 1.109375q0.078125 0.421875 0.078125 1.515625l0 2.1875q0 2.28125 0.109375 2.890625q0.109375 0.59375 0.40625 1.15625l-1.703125 0q-0.265625 -0.515625 -0.328125 -1.1875zm-0.140625 -3.671875q-0.890625 0.375 -2.671875 0.625q-1.015625 0.140625 -1.4375 0.328125q-0.421875 0.1875 -0.65625 0.53125q-0.21875 0.34375 -0.21875 0.78125q0 0.65625 0.5 1.09375q0.5 0.4375 1.453125 0.4375q0.9375 0 1.671875 -0.40625q0.75 -0.421875 1.09375 -1.140625q0.265625 -0.5625 0.265625 -1.640625l0 -0.609375zm10.469467 4.859375l0 -1.21875q-0.90625 1.4375 -2.703125 1.4375q-1.15625 0 -2.125 -0.640625q-0.96875 -0.640625 -1.5 -1.78125q-0.53125 -1.140625 -0.53125 -2.625q0 -1.453125 0.484375 -2.625q0.484375 -1.1875 1.4375 -1.8125q0.96875 -0.625 2.171875 -0.625q0.875 0 1.546875 0.375q0.6875 0.359375 1.109375 0.953125l0 -4.796875l1.640625 0l0 13.359375l-1.53125 0zm-5.171875 -4.828125q0 1.859375 0.78125 2.78125q0.78125 0.921875 1.84375 0.921875q1.078125 0 1.828125 -0.875q0.75 -0.890625 0.75 -2.6875q0 -1.984375 -0.765625 -2.90625q-0.765625 -0.9375 -1.890625 -0.9375q-1.078125 0 -1.8125 0.890625q-0.734375 0.890625 -0.734375 2.8125zm15.594467 3.640625q-0.921875 0.765625 -1.765625 1.09375q-0.828125 0.3125 -1.796875 0.3125q-1.59375 0 -2.453125 -0.78125q-0.859375 -0.78125 -0.859375 -1.984375q0 -0.71875 0.328125 -1.296875q0.328125 -0.59375 0.84375 -0.9375q0.53125 -0.359375 1.1875 -0.546875q0.46875 -0.125 1.453125 -0.25q1.984375 -0.234375 2.921875 -0.5625q0.015625 -0.34375 0.015625 -0.421875q0 -1.0 -0.46875 -1.421875q-0.625 -0.546875 -1.875 -0.546875q-1.15625 0 -1.703125 0.40625q-0.546875 0.40625 -0.8125 1.421875l-1.609375 -0.21875q0.21875 -1.015625 0.71875 -1.640625q0.5 -0.640625 1.453125 -0.984375q0.953125 -0.34375 2.1875 -0.34375q1.25 0 2.015625 0.296875q0.78125 0.28125 1.140625 0.734375q0.375 0.4375 0.515625 1.109375q0.078125 0.421875 0.078125 1.515625l0 2.1875q0 2.28125 0.109375 2.890625q0.109375 0.59375 0.40625 1.15625l-1.703125 0q-0.265625 -0.515625 -0.328125 -1.1875zm-0.140625 -3.671875q-0.890625 0.375 -2.671875 0.625q-1.015625 0.140625 -1.4375 0.328125q-0.421875 0.1875 -0.65625 0.53125q-0.21875 0.34375 -0.21875 0.78125q0 0.65625 0.5 1.09375q0.5 0.4375 1.453125 0.4375q0.9375 0 1.671875 -0.40625q0.75 -0.421875 1.09375 -1.140625q0.265625 -0.5625 0.265625 -1.640625l0 -0.609375zm5.2819824 8.78125l-1.1875 0q2.734375 -4.375 2.734375 -8.75q0 -1.71875 -0.390625 -3.390625q-0.3125 -1.375 -0.875 -2.625q-0.359375 -0.828125 -1.46875 -2.734375l1.1875 0q1.703125 2.28125 2.53125 4.59375q0.6875 1.984375 0.6875 4.140625q0 2.46875 -0.9375 4.765625q-0.9375 2.296875 -2.28125 4.0z" fill-rule="nonzero"/><path fill="#000000" fill-opacity="0.0" d="m356.4357 76.4042l178.3937 0l0 39.181107l-178.3937 0z" fill-rule="evenodd"/><path fill="#000000" d="m366.8732 103.324196l0 -13.359375l4.609375 0q1.546875 0 2.375 0.203125q1.140625 0.25 1.953125 0.953125q1.0625 0.890625 1.578125 2.28125q0.53125 1.390625 0.53125 3.171875q0 1.515625 -0.359375 2.703125q-0.359375 1.171875 -0.921875 1.9375q-0.546875 0.765625 -1.203125 1.21875q-0.65625 0.4375 -1.59375 0.671875q-0.9375 0.21875 -2.140625 0.21875l-4.828125 0zm1.765625 -1.578125l2.859375 0q1.3125 0 2.0625 -0.234375q0.75 -0.25 1.203125 -0.703125q0.625 -0.625 0.96875 -1.6875q0.359375 -1.0625 0.359375 -2.578125q0 -2.09375 -0.6875 -3.21875q-0.6875 -1.125 -1.671875 -1.5q-0.703125 -0.28125 -2.28125 -0.28125l-2.8125 0l0 10.203125zm18.12918 -1.53125l1.6875 0.203125q-0.40625 1.484375 -1.484375 2.3125q-1.078125 0.8125 -2.765625 0.8125q-2.125 0 -3.375 -1.296875q-1.234375 -1.3125 -1.234375 -3.671875q0 -2.453125 1.25 -3.796875q1.265625 -1.34375 3.265625 -1.34375q1.9375 0 3.15625 1.328125q1.234375 1.3125 1.234375 3.703125q0 0.15625 0 0.4375l-7.21875 0q0.09375 1.59375 0.90625 2.453125q0.8125 0.84375 2.015625 0.84375q0.90625 0 1.546875 -0.46875q0.640625 -0.484375 1.015625 -1.515625zm-5.390625 -2.65625l5.40625 0q-0.109375 -1.21875 -0.625 -1.828125q-0.78125 -0.953125 -2.03125 -0.953125q-1.125 0 -1.90625 0.765625q-0.765625 0.75 -0.84375 2.015625zm9.141357 5.765625l0 -9.671875l1.46875 0l0 1.375q1.0625 -1.59375 3.078125 -1.59375q0.875 0 1.609375 0.3125q0.734375 0.3125 1.09375 0.828125q0.375 0.5 0.515625 1.203125q0.09375 0.453125 0.09375 1.59375l0 5.953125l-1.640625 0l0 -5.890625q0 -1.0 -0.203125 -1.484375q-0.1875 -0.5 -0.671875 -0.796875q-0.484375 -0.296875 -1.140625 -0.296875q-1.046875 0 -1.8125 0.671875q-0.75 0.65625 -0.75 2.515625l0 5.28125l-1.640625 0zm13.953827 -1.46875l0.234375 1.453125q-0.6875 0.140625 -1.234375 0.140625q-0.890625 0 -1.390625 -0.28125q-0.484375 -0.28125 -0.6875 -0.734375q-0.203125 -0.46875 -0.203125 -1.9375l0 -5.578125l-1.203125 0l0 -1.265625l1.203125 0l0 -2.390625l1.625 -0.984375l0 3.375l1.65625 0l0 1.265625l-1.65625 0l0 5.671875q0 0.6875 0.078125 0.890625q0.09375 0.203125 0.28125 0.328125q0.203125 0.109375 0.578125 0.109375q0.265625 0 0.71875 -0.0625zm1.5895691 1.46875l0 -9.671875l1.46875 0l0 1.46875q0.5625 -1.03125 1.03125 -1.359375q0.484375 -0.328125 1.0625 -0.328125q0.828125 0 1.6875 0.53125l-0.5625 1.515625q-0.609375 -0.359375 -1.203125 -0.359375q-0.546875 0 -0.96875 0.328125q-0.421875 0.328125 -0.609375 0.890625q-0.28125 0.875 -0.28125 1.921875l0 5.0625l-1.625 0zm6.228302 -11.46875l0 -1.890625l1.640625 0l0 1.890625l-1.640625 0zm0 11.46875l0 -9.671875l1.640625 0l0 9.671875l-1.640625 0zm7.722931 -1.46875l0.234375 1.453125q-0.6875 0.140625 -1.234375 0.140625q-0.890625 0 -1.390625 -0.28125q-0.484375 -0.28125 -0.6875 -0.734375q-0.203125 -0.46875 -0.203125 -1.9375l0 -5.578125l-1.203125 0l0 -1.265625l1.203125 0l0 -2.390625l1.625 -0.984375l0 3.375l1.65625 0l0 1.265625l-1.65625 0l0 5.671875q0 0.6875 0.078125 0.890625q0.09375 0.203125 0.28125 0.328125q0.203125 0.109375 0.578125 0.109375q0.265625 0 0.71875 -0.0625zm0.9958191 -3.375q0 -2.6875 1.484375 -3.96875q1.25 -1.078125 3.046875 -1.078125q2.0 0 3.265625 1.3125q1.265625 1.296875 1.265625 3.609375q0 1.859375 -0.5625 2.9375q-0.5625 1.0625 -1.640625 1.65625q-1.0625 0.59375 -2.328125 0.59375q-2.03125 0 -3.28125 -1.296875q-1.25 -1.3125 -1.25 -3.765625zm1.6875 0q0 1.859375 0.796875 2.796875q0.8125 0.921875 2.046875 0.921875q1.21875 0 2.03125 -0.921875q0.8125 -0.9375 0.8125 -2.84375q0 -1.796875 -0.8125 -2.71875q-0.8125 -0.921875 -2.03125 -0.921875q-1.234375 0 -2.046875 0.921875q-0.796875 0.90625 -0.796875 2.765625zm8.641327 1.953125l1.625 -0.25q0.125 0.96875 0.75 1.5q0.625 0.515625 1.75 0.515625q1.125 0 1.671875 -0.453125q0.546875 -0.46875 0.546875 -1.09375q0 -0.546875 -0.484375 -0.875q-0.328125 -0.21875 -1.671875 -0.546875q-1.8125 -0.46875 -2.515625 -0.796875q-0.6875 -0.328125 -1.046875 -0.90625q-0.359375 -0.59375 -0.359375 -1.3125q0 -0.640625 0.296875 -1.1875q0.296875 -0.5625 0.8125 -0.921875q0.375 -0.28125 1.03125 -0.46875q0.671875 -0.203125 1.421875 -0.203125q1.140625 0 2.0 0.328125q0.859375 0.328125 1.265625 0.890625q0.421875 0.5625 0.578125 1.5l-1.609375 0.21875q-0.109375 -0.75 -0.640625 -1.171875q-0.515625 -0.421875 -1.46875 -0.421875q-1.140625 0 -1.625 0.375q-0.46875 0.375 -0.46875 0.875q0 0.3125 0.1875 0.578125q0.203125 0.265625 0.640625 0.4375q0.234375 0.09375 1.4375 0.421875q1.75 0.453125 2.4375 0.75q0.6875 0.296875 1.078125 0.859375q0.390625 0.5625 0.390625 1.40625q0 0.828125 -0.484375 1.546875q-0.46875 0.71875 -1.375 1.125q-0.90625 0.390625 -2.046875 0.390625q-1.875 0 -2.875 -0.78125q-0.984375 -0.78125 -1.25 -2.328125zm18.292694 6.8125q-1.359375 -1.703125 -2.296875 -4.0q-0.9375 -2.296875 -0.9375 -4.765625q0 -2.15625 0.703125 -4.140625q0.828125 -2.3125 2.53125 -4.59375l1.171875 0q-1.09375 1.890625 -1.453125 2.703125q-0.546875 1.25 -0.875 2.625q-0.390625 1.703125 -0.390625 3.421875q0 4.375 2.71875 8.75l-1.171875 0zm2.431427 -6.8125l1.625 -0.25q0.125 0.96875 0.75 1.5q0.625 0.515625 1.75 0.515625q1.125 0 1.671875 -0.453125q0.546875 -0.46875 0.546875 -1.09375q0 -0.546875 -0.484375 -0.875q-0.328125 -0.21875 -1.671875 -0.546875q-1.8125 -0.46875 -2.515625 -0.796875q-0.6875 -0.328125 -1.046875 -0.90625q-0.359375 -0.59375 -0.359375 -1.3125q0 -0.640625 0.296875 -1.1875q0.296875 -0.5625 0.8125 -0.921875q0.375 -0.28125 1.03125 -0.46875q0.671875 -0.203125 1.421875 -0.203125q1.140625 0 2.0 0.328125q0.859375 0.328125 1.265625 0.890625q0.421875 0.5625 0.578125 1.5l-1.609375 0.21875q-0.109375 -0.75 -0.640625 -1.171875q-0.515625 -0.421875 -1.46875 -0.421875q-1.140625 0 -1.625 0.375q-0.46875 0.375 -0.46875 0.875q0 0.3125 0.1875 0.578125q0.203125 0.265625 0.640625 0.4375q0.234375 0.09375 1.4375 0.421875q1.75 0.453125 2.4375 0.75q0.6875 0.296875 1.078125 0.859375q0.390625 0.5625 0.390625 1.40625q0 0.828125 -0.484375 1.546875q-0.46875 0.71875 -1.375 1.125q-0.90625 0.390625 -2.046875 0.390625q-1.875 0 -2.875 -0.78125q-0.984375 -0.78125 -1.25 -2.328125zm16.296875 1.703125q-0.921875 0.765625 -1.765625 1.09375q-0.828125 0.3125 -1.796875 0.3125q-1.59375 0 -2.453125 -0.78125q-0.859375 -0.78125 -0.859375 -1.984375q0 -0.71875 0.328125 -1.296875q0.328125 -0.59375 0.84375 -0.9375q0.53125 -0.359375 1.1875 -0.546875q0.46875 -0.125 1.453125 -0.25q1.984375 -0.234375 2.921875 -0.5625q0.015625 -0.34375 0.015625 -0.421875q0 -1.0 -0.46875 -1.421875q-0.625 -0.546875 -1.875 -0.546875q-1.15625 0 -1.703125 0.40625q-0.546875 0.40625 -0.8125 1.421875l-1.609375 -0.21875q0.21875 -1.015625 0.71875 -1.640625q0.5 -0.640625 1.453125 -0.984375q0.953125 -0.34375 2.1875 -0.34375q1.25 0 2.015625 0.296875q0.78125 0.28125 1.140625 0.734375q0.375 0.4375 0.515625 1.109375q0.078125 0.421875 0.078125 1.515625l0 2.1875q0 2.28125 0.109375 2.890625q0.109375 0.59375 0.40625 1.15625l-1.703125 0q-0.265625 -0.515625 -0.328125 -1.1875zm-0.140625 -3.671875q-0.890625 0.375 -2.671875 0.625q-1.015625 0.140625 -1.4375 0.328125q-0.421875 0.1875 -0.65625 0.53125q-0.21875 0.34375 -0.21875 0.78125q0 0.65625 0.5 1.09375q0.5 0.4375 1.453125 0.4375q0.9375 0 1.671875 -0.40625q0.75 -0.421875 1.09375 -1.140625q0.265625 -0.5625 0.265625 -1.640625l0 -0.609375zm4.766327 4.859375l0 -9.671875l1.640625 0l0 9.671875l-1.640625 0zm0.21875 -10.875l1.21875 -2.546875l2.15625 0l-2.015625 2.546875l-1.359375 0zm10.667694 10.875l0 -1.21875q-0.90625 1.4375 -2.703125 1.4375q-1.15625 0 -2.125 -0.640625q-0.96875 -0.640625 -1.5 -1.78125q-0.53125 -1.140625 -0.53125 -2.625q0 -1.453125 0.484375 -2.625q0.484375 -1.1875 1.4375 -1.8125q0.96875 -0.625 2.171875 -0.625q0.875 0 1.546875 0.375q0.6875 0.359375 1.109375 0.953125l0 -4.796875l1.640625 0l0 13.359375l-1.53125 0zm-5.171875 -4.828125q0 1.859375 0.78125 2.78125q0.78125 0.921875 1.84375 0.921875q1.078125 0 1.828125 -0.875q0.75 -0.890625 0.75 -2.6875q0 -1.984375 -0.765625 -2.90625q-0.765625 -0.9375 -1.890625 -0.9375q-1.078125 0 -1.8125 0.890625q-0.734375 0.890625 -0.734375 2.8125zm15.594452 3.640625q-0.921875 0.765625 -1.765625 1.09375q-0.828125 0.3125 -1.796875 0.3125q-1.59375 0 -2.453125 -0.78125q-0.859375 -0.78125 -0.859375 -1.984375q0 -0.71875 0.328125 -1.296875q0.328125 -0.59375 0.84375 -0.9375q0.53125 -0.359375 1.1875 -0.546875q0.46875 -0.125 1.453125 -0.25q1.984375 -0.234375 2.921875 -0.5625q0.015625 -0.34375 0.015625 -0.421875q0 -1.0 -0.46875 -1.421875q-0.625 -0.546875 -1.875 -0.546875q-1.15625 0 -1.703125 0.40625q-0.546875 0.40625 -0.8125 1.421875l-1.609375 -0.21875q0.21875 -1.015625 0.71875 -1.640625q0.5 -0.640625 1.453125 -0.984375q0.953125 -0.34375 2.1875 -0.34375q1.25 0 2.015625 0.296875q0.78125 0.28125 1.140625 0.734375q0.375 0.4375 0.515625 1.109375q0.078125 0.421875 0.078125 1.515625l0 2.1875q0 2.28125 0.109375 2.890625q0.109375 0.59375 0.40625 1.15625l-1.703125 0q-0.265625 -0.515625 -0.328125 -1.1875zm-0.140625 -3.671875q-0.890625 0.375 -2.671875 0.625q-1.015625 0.140625 -1.4375 0.328125q-0.421875 0.1875 -0.65625 0.53125q-0.21875 0.34375 -0.21875 0.78125q0 0.65625 0.5 1.09375q0.5 0.4375 1.453125 0.4375q0.9375 0 1.671875 -0.40625q0.75 -0.421875 1.09375 -1.140625q0.265625 -0.5625 0.265625 -1.640625l0 -0.609375zm5.2819824 8.78125l-1.1875 0q2.734375 -4.375 2.734375 -8.75q0 -1.71875 -0.390625 -3.390625q-0.3125 -1.375 -0.875 -2.625q-0.359375 -0.828125 -1.46875 -2.734375l1.1875 0q1.703125 2.28125 2.53125 4.59375q0.6875 1.984375 0.6875 4.140625q0 2.46875 -0.9375 4.765625q-0.9375 2.296875 -2.28125 4.0z" fill-rule="nonzero"/><path fill="#000000" fill-opacity="0.0" d="m264.32022 133.19423l85.95276 0l0 45.417313l-85.95276 0z" fill-rule="evenodd"/><path fill="#000000" d="m273.28897 160.11423l5.125 -13.359375l1.90625 0l5.46875 13.359375l-2.015625 0l-1.546875 -4.046875l-5.59375 0l-1.46875 4.046875l-1.875 0zm3.859375 -5.484375l4.53125 0l-1.40625 -3.703125q-0.625 -1.6875 -0.9375 -2.765625q-0.265625 1.28125 -0.71875 2.546875l-1.46875 3.921875zm8.756073 5.484375l3.53125 -5.03125l-3.265625 -4.640625l2.046875 0l1.484375 2.265625q0.421875 0.640625 0.671875 1.078125q0.40625 -0.59375 0.734375 -1.0625l1.640625 -2.28125l1.953125 0l-3.34375 4.546875l3.59375 5.125l-2.015625 0l-1.984375 -3.0l-0.515625 -0.8125l-2.546875 3.8125l-1.984375 0zm9.8125 -4.84375q0 -2.6875 1.484375 -3.96875q1.25 -1.078125 3.046875 -1.078125q2.0 0 3.265625 1.3125q1.265625 1.296875 1.265625 3.609375q0 1.859375 -0.5625 2.9375q-0.5625 1.0625 -1.640625 1.65625q-1.0625 0.59375 -2.328125 0.59375q-2.03125 0 -3.28125 -1.296875q-1.25 -1.3125 -1.25 -3.765625zm1.6875 0q0 1.859375 0.796875 2.796875q0.8125 0.921875 2.046875 0.921875q1.21875 0 2.03125 -0.921875q0.8125 -0.9375 0.8125 -2.84375q0 -1.796875 -0.8125 -2.71875q-0.8125 -0.921875 -2.03125 -0.921875q-1.234375 0 -2.046875 0.921875q-0.796875 0.90625 -0.796875 2.765625zm2.828125 -7.578125l-1.03125 1.546875l-1.875 0l1.96875 -2.546875l1.734375 0l2.0625 2.546875l-1.859375 0l-1.0 -1.546875zm6.469452 12.421875l0 -9.671875l1.46875 0l0 1.375q1.0625 -1.59375 3.078125 -1.59375q0.875 0 1.609375 0.3125q0.734375 0.3125 1.09375 0.828125q0.375 0.5 0.515625 1.203125q0.09375 0.453125 0.09375 1.59375l0 5.953125l-1.640625 0l0 -5.890625q0 -1.0 -0.203125 -1.484375q-0.1875 -0.5 -0.671875 -0.796875q-0.484375 -0.296875 -1.140625 -0.296875q-1.046875 0 -1.8125 0.671875q-0.75 0.65625 -0.75 2.515625l0 5.28125l-1.640625 0zm10.375732 -11.46875l0 -1.890625l1.640625 0l0 1.890625l-1.640625 0zm0 11.46875l0 -9.671875l1.640625 0l0 9.671875l-1.640625 0zm3.535431 -4.84375q0 -2.6875 1.484375 -3.96875q1.25 -1.078125 3.046875 -1.078125q2.0 0 3.265625 1.3125q1.265625 1.296875 1.265625 3.609375q0 1.859375 -0.5625 2.9375q-0.5625 1.0625 -1.640625 1.65625q-1.0625 0.59375 -2.328125 0.59375q-2.03125 0 -3.28125 -1.296875q-1.25 -1.3125 -1.25 -3.765625zm1.6875 0q0 1.859375 0.796875 2.796875q0.8125 0.921875 2.046875 0.921875q1.21875 0 2.03125 -0.921875q0.8125 -0.9375 0.8125 -2.84375q0 -1.796875 -0.8125 -2.71875q-0.8125 -0.921875 -2.03125 -0.921875q-1.234375 0 -2.046875 0.921875q-0.796875 0.90625 -0.796875 2.765625z" fill-rule="nonzero"/><path fill="#000000" fill-opacity="0.0" d="m215.79265 263.28873l184.8189 -24.787415" fill-rule="evenodd"/><path stroke="#000000" stroke-width="1.0" stroke-linejoin="round" stroke-linecap="butt" d="m215.79265 263.28873l178.87215 -23.989838" fill-rule="evenodd"/><path fill="#000000" stroke="#000000" stroke-width="1.0" stroke-linecap="butt" d="m394.88437 240.93594l4.2782593 -2.2403107l-4.717407 -1.0338287z" fill-rule="evenodd"/><path fill="#000000" fill-opacity="0.0" d="m249.64758 255.27924l133.48032 -21.952759l6.362213 38.64566l-133.48032 21.952759z" fill-rule="evenodd"/><path fill="#000000" d="m264.31967 280.14786l-2.1701355 -13.181946l4.9799805 -0.81903076q1.3105164 -0.21554565 2.0246277 -0.20629883q0.9838257 0.012390137 1.7229614 0.36587524q0.73657227 0.33807373 1.2719421 1.0892639q0.5354004 0.7511902 0.69784546 1.737915q0.27664185 1.6805115 -0.6097107 3.0297241q-0.8734436 1.3312683 -3.6795044 1.7927856l-3.3765259 0.55529785l0.8807373 5.3498535l-1.742218 0.28656006zm0.60513306 -7.193573l3.4073486 -0.5603943q1.6959534 -0.27893066 2.301117 -1.0276794q0.6051636 -0.7487488 0.41732788 -1.8896484q-0.13705444 -0.83255005 -0.6497803 -1.3499451q-0.51272583 -0.517395 -1.2369995 -0.58828735q-0.45199585 -0.052368164 -1.6391907 0.1428833l-3.3764954 0.55532837l0.77667236 4.717743zm11.457642 5.209656l-1.571106 -9.543396l1.4492798 -0.2383728l0.23858643 1.4492493q0.3875122 -1.1088257 0.7967529 -1.508667q0.4246521 -0.40237427 0.9951172 -0.49621582q0.8171387 -0.1343689 1.7514343 0.2503662l-0.3088684 1.5867615q-0.65966797 -0.2557068 -1.2455444 -0.1593628q-0.5396118 0.088775635 -0.9026184 0.48098755q-0.36297607 0.39224243 -0.456604 0.97769165q-0.13537598 0.9090271 0.03466797 1.9419861l0.8223572 4.99527l-1.6034546 0.2637024zm4.7576294 -5.691284q-0.43658447 -2.6517944 0.8199768 -4.1569214q1.0583191 -1.2666626 2.8313599 -1.558258q1.9734802 -0.32455444 3.4355469 0.7651062q1.4595032 1.0742493 1.8351746 3.3560486q0.30203247 1.8346863 -0.07788086 2.9897766q-0.3824463 1.1396484 -1.349823 1.9004822q-0.95196533 0.7583008 -2.2008057 0.9636841q-2.0043335 0.32965088 -3.4484253 -0.74716187q-1.4466553 -1.0921936 -1.8451233 -3.5127563zm1.6651306 -0.27383423q0.30203247 1.8346863 1.2406311 2.6304016q0.95147705 0.777771 2.1694946 0.5774536q1.2026062 -0.19778442 1.8545837 -1.2392578q0.64941406 -1.0569153 0.3397827 -2.9378357q-0.29190063 -1.7730103 -1.2433777 -2.5508118q-0.95147705 -0.777771 -2.1540833 -0.5799866q-1.2180176 0.20031738 -1.8699951 1.2418213q-0.6390991 1.023529 -0.33703613 2.8582153zm10.562714 6.9244995l-2.1726685 -13.197357l1.4646912 -0.24090576l0.20306396 1.2333984q0.40490723 -0.81082153 0.9940796 -1.2719116q0.6020508 -0.47906494 1.5425415 -0.633728q1.2180176 -0.2003479 2.2471619 0.27963257q1.0419922 0.46203613 1.7103271 1.5397339q0.6657715 1.0622864 0.8916626 2.4344482q0.24111938 1.4646606 -0.09017944 2.7225952q-0.33129883 1.2579346 -1.2294006 2.0548706q-0.90063477 0.78152466 -2.0107117 0.9640808q-0.8017273 0.13186646 -1.505127 -0.10083008q-0.70339966 -0.23266602 -1.1905518 -0.6909485l0.76397705 4.6406555l-1.618866 0.26626587zm0.0864563 -8.612579q0.302063 1.8346863 1.189331 2.6071777q0.9001465 0.7545471 1.9485474 0.5821228q1.0792542 -0.17749023 1.7004089 -1.2139282q0.6185913 -1.0518188 0.30386353 -2.9635925q-0.2994995 -1.8192444 -1.2047119 -2.6046448q-0.88983154 -0.78790283 -1.9382324 -0.6154785q-1.0329895 0.16989136 -1.6748352 1.2730408q-0.62893677 1.0852051 -0.32437134 2.9353027zm15.58609 1.0786743q-0.7852783 0.9050598 -1.5645447 1.3657532q-0.76638794 0.44274902 -1.72229 0.59994507q-1.5726318 0.25863647 -2.5475159 -0.37277222q-0.97488403 -0.6314087 -1.1703491 -1.8185425q-0.11672974 -0.709198 0.11312866 -1.3328857q0.22732544 -0.63912964 0.68026733 -1.0619812q0.4658203 -0.44082642 1.0829163 -0.7323303q0.44223022 -0.19940186 1.3932495 -0.48251343q1.9200134 -0.5532837 2.7917786 -1.0292053q-0.04043579 -0.34170532 -0.053100586 -0.41879272q-0.16244507 -0.98672485 -0.69351196 -1.3269043q-0.7055664 -0.4382019 -1.9389954 -0.23535156q-1.1409302 0.18765259 -1.614563 0.6772461q-0.4736328 0.48962402 -0.57073975 1.5348511l-1.6235657 0.045318604q0.050842285 -1.0376282 0.442688 -1.7354736q0.38931274 -0.71325684 1.2739563 -1.2071228q0.8846741 -0.49383545 2.1026917 -0.69415283q1.233429 -0.20288086 2.0371094 -0.034179688q0.81658936 0.15072632 1.244812 0.53952026q0.44110107 0.3708191 0.68899536 1.0109558q0.14562988 0.40359497 0.32330322 1.4828186l0.35531616 2.1584473q0.37057495 2.250946 0.57751465 2.8344727q0.2043457 0.56811523 0.5886841 1.0749512l-1.6805725 0.2763977q-0.3458557 -0.46566772 -0.5166626 -1.1184692zm-0.7352295 -3.6002808q-0.8179016 0.5145569 -2.5349426 1.050293q-0.9793091 0.30358887 -1.3651428 0.5570679q-0.38580322 0.2534485 -0.5612488 0.63067627q-0.16000366 0.37469482 -0.08892822 0.80636597q0.1065979 0.6475525 0.671051 0.9980774q0.5644226 0.35055542 1.5049133 0.19589233q0.92507935 -0.15216064 1.5837097 -0.6721802q0.6715393 -0.5379944 0.89398193 -1.3029785q0.17071533 -0.59814453 -0.0043945312 -1.6619263l-0.09899902 -0.60128784zm4.7585754 4.9496155l1.6106873 -0.027374268q0.22976685 0.72229004 0.7301941 0.97250366q0.67489624 0.34823608 1.7232971 0.17581177q1.1255188 -0.18511963 1.6531982 -0.7311096q0.54312134 -0.54855347 0.62698364 -1.3857422q0.042114258 -0.51364136 -0.23474121 -2.099121q-0.84280396 1.4212341 -2.4308472 1.6824341q-1.9734802 0.32455444 -3.286255 -0.9163513q-1.3127747 -1.2409058 -1.6401978 -3.2297668q-0.22589111 -1.3721619 0.07711792 -2.6095886q0.3184204 -1.2399902 1.1419678 -2.00885q0.8364258 -0.7867737 2.1161194 -0.9972534q1.680542 -0.2763977 2.9985657 0.9003296l-0.18780518 -1.1408997l1.4955139 -0.24597168l1.3579407 8.248352q0.36801147 2.2355347 0.057769775 3.2366638q-0.29483032 0.9985657 -1.1927185 1.70047q-0.8825073 0.69937134 -2.331787 0.9377136q-1.6959534 0.27893066 -2.8866882 -0.31698608q-1.1727905 -0.58303833 -1.3983154 -2.1452637zm0.39715576 -5.955902q0.30966187 1.8809204 1.191864 2.622589q0.8976135 0.73913574 2.0231018 0.5540161q1.1100769 -0.18255615 1.7259827 -1.1547546q0.61331177 -0.9876404 0.3112793 -2.8223267q-0.28933716 -1.7575684 -1.2203369 -2.5070496q-0.9180908 -0.76742554 -2.0127869 -0.58740234q-1.0792236 0.17749023 -1.690033 1.180542q-0.6133423 0.9876404 -0.32907104 2.714386zm16.055847 1.2389221q-0.7852783 0.9050598 -1.5645447 1.3657837q-0.76638794 0.4427185 -1.72229 0.59994507q-1.5726318 0.25863647 -2.5475159 -0.37277222q-0.97488403 -0.6314087 -1.1703186 -1.818573q-0.116760254 -0.709198 0.113098145 -1.3328857q0.22732544 -0.6390991 0.68026733 -1.0619812q0.46585083 -0.4407959 1.0829163 -0.7323303q0.44223022 -0.19940186 1.39328 -0.4824829q1.9199829 -0.5532837 2.791748 -1.0292053q-0.040405273 -0.34173584 -0.053100586 -0.41882324q-0.16244507 -0.98669434 -0.69351196 -1.3269043q-0.7055664 -0.4381714 -1.9389954 -0.23532104q-1.1408997 0.18762207 -1.6145325 0.6772461q-0.4736328 0.4895935 -0.57077026 1.5348511l-1.6235657 0.045318604q0.050872803 -1.0376282 0.4427185 -1.7354736q0.38928223 -0.71325684 1.2739563 -1.2071228q0.88464355 -0.49386597 2.1026611 -0.69418335q1.233429 -0.20285034 2.0371094 -0.034179688q0.81658936 0.15072632 1.244812 0.53952026q0.44110107 0.3708496 0.68899536 1.0109558q0.14562988 0.40359497 0.32330322 1.4828186l0.35534668 2.1584473q0.37057495 2.250946 0.57748413 2.8345032q0.20437622 0.5680847 0.5886841 1.0749512l-1.680542 0.2763977q-0.34588623 -0.46566772 -0.5166931 -1.1184998zm-0.7352295 -3.6002808q-0.8179016 0.5145569 -2.534912 1.0503235q-0.9793396 0.30355835 -1.3651428 0.55703735q-0.38583374 0.253479 -0.5612793 0.6307068q-0.16000366 0.3746643 -0.08892822 0.80636597q0.1065979 0.647522 0.671051 0.9980774q0.5644226 0.35055542 1.5049133 0.19586182q0.92507935 -0.15213013 1.5837402 -0.6721802q0.6715088 -0.53796387 0.8939514 -1.302948q0.17074585 -0.59814453 -0.0043945312 -1.6619568l-0.09899902 -0.60128784zm10.590149 -0.41156006l1.6235657 -0.045318604q0.006958008 1.6773376 -0.91748047 2.7953186q-0.91152954 1.1000061 -2.4841614 1.3586426q-1.9580688 0.32202148 -3.355896 -0.7623596q-1.3978577 -1.0844116 -1.7912598 -3.474121q-0.25637817 -1.5571594 0.062072754 -2.7971497q0.3184204 -1.2399902 1.2729187 -1.9828491q0.95196533 -0.7583008 2.1853943 -0.9611511q1.55719 -0.25610352 2.6734009 0.3678894q1.1161804 0.62402344 1.6322937 2.0276184l-1.5345459 0.48989868q-0.38864136 -0.9178467 -1.0377808 -1.3019714q-0.65167236 -0.39953613 -1.4534302 -0.26766968q-1.2179871 0.20031738 -1.8442078 1.2058716q-0.6262207 1.0055847 -0.31402588 2.901947q0.31726074 1.927185 1.2019958 2.6842651q0.88220215 0.7416687 2.0693665 0.54641724q0.9559021 -0.15722656 1.4916077 -0.8470459q0.5510864 -0.6923523 0.5201721 -1.9382324zm-2.7261047 5.4680176l0.20111084 -1.6640625l1.2026062 -0.19778442l-0.1355896 1.0040588q0.7861328 -0.034301758 1.2324829 0.27233887q0.44891357 0.322052 0.5275879 0.7999878q0.10916138 0.66293335 -0.45465088 1.2782288q-0.5612488 0.63067627 -1.8717651 0.8462219q-0.7246399 0.11917114 -1.3128662 0.10507202l-0.06466675 -1.0661316q0.57806396 -0.047576904 0.8555908 -0.09320068q0.83258057 -0.13693237 1.1465759 -0.44195557q0.21875 -0.21014404 0.17559814 -0.47225952q-0.027923584 -0.16958618 -0.15612793 -0.275177q-0.11282349 -0.10812378 -0.4055786 -0.15496826q-0.29275513 -0.046875 -0.9403076 0.059631348zm12.313843 -4.653778q-0.7852783 0.9050598 -1.5645447 1.3657532q-0.76638794 0.44274902 -1.72229 0.59994507q-1.5726318 0.25863647 -2.5475159 -0.37277222q-0.97488403 -0.6314087 -1.1703491 -1.8185425q-0.11672974 -0.709198 0.11312866 -1.3329163q0.22732544 -0.6390991 0.68026733 -1.0619812q0.4658203 -0.4407959 1.0829163 -0.7322998q0.44223022 -0.19943237 1.3932495 -0.48251343q1.9200134 -0.5532837 2.7917786 -1.0292053q-0.04043579 -0.34170532 -0.053100586 -0.41879272q-0.16244507 -0.98672485 -0.69351196 -1.3269348q-0.7055664 -0.4381714 -1.9389954 -0.23532104q-1.1409302 0.18765259 -1.614563 0.6772461q-0.4736328 0.4895935 -0.57073975 1.5348511l-1.6235962 0.045318604q0.050872803 -1.0376282 0.4427185 -1.7354736q0.38931274 -0.71325684 1.2739563 -1.2071228q0.8846741 -0.49386597 2.1026611 -0.69418335q1.233429 -0.20285034 2.03714 -0.03414917q0.81658936 0.15072632 1.244812 0.53948975q0.44110107 0.3708496 0.68899536 1.0109863q0.14562988 0.40359497 0.3232727 1.4828186l0.35534668 2.1584167q0.37057495 2.2509766 0.57748413 2.8345032q0.20437622 0.56811523 0.5887146 1.0749512l-1.6805725 0.2763977q-0.3458557 -0.46566772 -0.5166626 -1.1184692zm-0.7352295 -3.6002808q-0.8179016 0.5145569 -2.5349426 1.050293q-0.9793091 0.30358887 -1.3651428 0.55703735q-0.38580322 0.253479 -0.5612488 0.6307068q-0.16000366 0.37469482 -0.08892822 0.80636597q0.1065979 0.647522 0.6710205 0.9980774q0.5644531 0.35055542 1.5049438 0.19586182q0.92507935 -0.15213013 1.5837097 -0.67214966q0.6715393 -0.5379944 0.89398193 -1.3029785q0.17071533 -0.59814453 -0.0043945312 -1.6619568l-0.09899902 -0.6012573zm-6.2881775 -5.2998047q-0.16772461 -0.9225006 0.2651062 -1.563736q0.43029785 -0.656662 1.2166138 -0.7859802q0.5704651 -0.093826294 1.607605 0.24232483q0.5673523 0.1758728 0.8911133 0.12263489q0.27752686 -0.045654297 0.40634155 -0.22517395q0.12878418 -0.17953491 0.11431885 -0.6522064l1.1717529 -0.1927185q0.13668823 1.0226288 -0.27038574 1.6279602q-0.39419556 0.5873871 -1.1496887 0.7116394q-0.5704346 0.093826294 -1.5792847 -0.26281738q-0.65460205 -0.22486877 -0.9321289 -0.17922974q-0.3083496 0.050720215 -0.4578247 0.2969818q-0.16488647 0.24880981 -0.080963135 0.6625519l-1.2025757 0.19776917zm9.837524 4.7318726q-0.43655396 -2.6517944 0.8200073 -4.1569214q1.0582886 -1.2666473 2.8313599 -1.558258q1.9734802 -0.3245697 3.4355469 0.7651062q1.4595032 1.0742493 1.835144 3.3560486q0.302063 1.8346863 -0.07785034 2.9897766q-0.3824463 1.1396484 -1.349823 1.9004822q-0.95196533 0.7583008 -2.2008362 0.9636841q-2.004303 0.32965088 -3.4484253 -0.74716187q-1.4466248 -1.0921936 -1.8451233 -3.5127563zm1.6651306 -0.27383423q0.302063 1.8346558 1.2406616 2.6304016q0.95147705 0.777771 2.1694946 0.5774536q1.2025757 -0.19778442 1.8545532 -1.2392578q0.6494446 -1.0569153 0.3397827 -2.9378357q-0.29187012 -1.7730103 -1.2433777 -2.5508118q-0.95147705 -0.777771 -2.1540527 -0.5799866q-1.2180176 0.20031738 -1.8699951 1.2418213q-0.6390991 1.023529 -0.33706665 2.8582153z" fill-rule="nonzero"/><path fill="#000000" fill-opacity="0.0" d="m78.46982 179.65726c1.3766403 -0.25808716 6.367012 2.3232727 8.259842 -1.5485535c1.8928223 -3.8718262 2.4085693 -21.33815 3.0971146 -21.682419c0.6885376 -0.3442688 -0.17060852 14.024063 1.0341187 19.616806c1.2047272 5.592743 2.924759 12.304901 6.1942215 13.939636c3.2694702 1.6347198 9.63649 -2.5822449 13.422577 -4.131241c3.786087 -1.548996 5.9383163 -4.388443 9.293961 -5.162735c3.3556442 -0.77427673 9.033249 0.43089294 10.83989 0.5170593" fill-rule="evenodd"/><path stroke="#000000" stroke-width="1.0" stroke-linejoin="round" stroke-linecap="butt" d="m78.46982 179.65726c1.3766403 -0.25808716 6.367012 2.3232727 8.259842 -1.5485535c1.8928223 -3.8718262 2.4085693 -21.33815 3.0971146 -21.682419c0.6885376 -0.3442688 -0.17060852 14.024063 1.0341187 19.616806c1.2047272 5.592743 2.924759 12.304901 6.1942215 13.939636c3.2694702 1.6347198 9.63649 -2.5822449 13.422577 -4.131241c3.786087 -1.548996 5.9383163 -4.388443 9.293961 -5.162735c3.3556442 -0.77427673 9.033249 0.43089294 10.83989 0.5170593" fill-rule="evenodd"/><path fill="#000000" fill-opacity="0.0" d="m86.35958 236.97485c1.3766403 -0.25810242 6.367012 2.3232727 8.259842 -1.5485687c1.8928223 -3.8718262 2.408577 -21.338135 3.0971146 -21.682404c0.6885376 -0.3442688 -0.17060852 14.024048 1.0341187 19.61679c1.2047272 5.592743 2.924759 12.304901 6.194229 13.939636c3.2694626 1.6347351 9.636482 -2.5822449 13.422569 -4.131241c3.786087 -1.548996 5.9383163 -4.388443 9.293961 -5.1627197c3.3556442 -0.77427673 9.033241 0.4308777 10.839897 0.5170593" fill-rule="evenodd"/><path stroke="#000000" stroke-width="1.0" stroke-linejoin="round" stroke-linecap="butt" d="m86.35958 236.97485c1.3766403 -0.25810242 6.367012 2.3232727 8.259842 -1.5485687c1.8928223 -3.8718262 2.408577 -21.338135 3.0971146 -21.682404c0.6885376 -0.3442688 -0.17060852 14.024048 1.0341187 19.61679c1.2047272 5.592743 2.924759 12.304901 6.194229 13.939636c3.2694626 1.6347351 9.636482 -2.5822449 13.422569 -4.131241c3.786087 -1.548996 5.9383163 -4.388443 9.293961 -5.1627197c3.3556442 -0.77427673 9.033241 0.4308777 10.839897 0.5170593" fill-rule="evenodd"/><path fill="#000000" fill-opacity="0.0" d="m87.20604 138.82103c1.3766403 -0.25808716 6.367012 2.3232727 8.259842 -1.5485535c1.8928223 -3.8718262 2.4085693 -21.338142 3.0971146 -21.682419c0.6885376 -0.3442688 -0.14654541 14.896332 1.0341187 19.616806c1.1806641 4.7204742 2.7804031 7.0713043 6.0498657 8.706039c3.2694702 1.6347198 9.756783 1.7790833 13.566933 1.102356c3.8101501 -0.6767273 6.2204666 -4.7209167 9.293961 -5.162735c3.0734863 -0.44181824 7.6224823 2.0931854 9.146988 2.5118103" fill-rule="evenodd"/><path stroke="#000000" stroke-width="1.0" stroke-linejoin="round" stroke-linecap="butt" d="m87.20604 138.82103c1.3766403 -0.25808716 6.367012 2.3232727 8.259842 -1.5485535c1.8928223 -3.8718262 2.4085693 -21.338142 3.0971146 -21.682419c0.6885376 -0.3442688 -0.14654541 14.896332 1.0341187 19.616806c1.1806641 4.7204742 2.7804031 7.0713043 6.0498657 8.706039c3.2694702 1.6347198 9.756783 1.7790833 13.566933 1.102356c3.8101501 -0.6767273 6.2204666 -4.7209167 9.293961 -5.162735c3.0734863 -0.44181824 7.6224823 2.0931854 9.146988 2.5118103" fill-rule="evenodd"/><path fill="#000000" fill-opacity="0.0" d="m448.479 156.42996c1.376648 -0.25810242 6.3670044 2.3232727 8.259827 -1.5485687c1.8928528 -3.8718262 2.4085999 -21.338135 3.0971375 -21.682404c0.6885376 -0.3442688 -0.14654541 14.896317 1.0341187 19.61679c1.1806641 4.7204742 2.7803955 7.0713043 6.0498657 8.706039c3.2694702 1.6347351 9.756775 1.7790833 13.566925 1.102356c3.8101501 -0.6767273 6.220459 -4.7209015 9.293976 -5.1627197c3.0734863 -0.44181824 7.622467 2.0931702 9.146973 2.5118103" fill-rule="evenodd"/><path stroke="#000000" stroke-width="1.0" stroke-linejoin="round" stroke-linecap="butt" d="m448.479 156.42996c1.376648 -0.25810242 6.3670044 2.3232727 8.259827 -1.5485687c1.8928528 -3.8718262 2.4085999 -21.338135 3.0971375 -21.682404c0.6885376 -0.3442688 -0.14654541 14.896317 1.0341187 19.61679c1.1806641 4.7204742 2.7803955 7.0713043 6.0498657 8.706039c3.2694702 1.6347351 9.756775 1.7790833 13.566925 1.102356c3.8101501 -0.6767273 6.220459 -4.7209015 9.293976 -5.1627197c3.0734863 -0.44181824 7.622467 2.0931702 9.146973 2.5118103" fill-rule="evenodd"/></g></svg>